<svg id="圖層_1" data-name="圖層 1" xmlns="http://www.w3.org/2000/svg" xmlns:xlink="http://www.w3.org/1999/xlink" viewBox="0 0 277.33 111.09"><defs><style>.cls-1{fill:none;}.cls-2{fill:#3c68b2;}.cls-3{clip-path:url(#clip-path);}.cls-4,.cls-6{fill:#3b63a7;}.cls-5{fill:#fff;}.cls-6{stroke:#3b63a7;stroke-miterlimit:10;stroke-width:0.75px;}</style><clipPath id="clip-path"><rect class="cls-1" x="11.04" y="24.43" width="56.83" height="56.83" rx="9.9" ry="9.9"/></clipPath></defs><title>logo</title><path class="cls-2" d="M61.71,86.85c-14.59,0-29.22.37-43.8,0-5.48-.14-10.53-3-12-8.64-.67-2.48-.42-5.26-.42-7.81V42.28c0-7.37-1.74-17.45,5.83-21.82C17,17.15,26.8,18.85,33.06,18.85H59.52c8.9,0,13.94,5.41,13.94,14.18V63c0,9.45,1.69,23.28-11.75,23.89-3.85.17-3.87,6.17,0,6,7.23-.33,13.62-4.29,16.41-11.11,1.39-3.39,1.34-6.84,1.34-10.42V40.12c0-9.22.68-18.75-8.28-24.5-6.92-4.44-17.52-2.77-25.33-2.77-9.34,0-18.72-.25-28.06,0C6.82,13.13-.43,21.18-.54,32c-.1,9.88,0,19.77,0,29.64,0,8.32-1.54,18.33,4.36,25.12,7.15,8.23,19.5,6.14,29.24,6.14H61.71C65.57,92.85,65.58,86.85,61.71,86.85Z"/><g class="cls-3"><rect class="cls-4" x="7.07" y="23.94" width="64.77" height="8.65"/><rect class="cls-4" x="7.07" y="33.57" width="64.77" height="8.65"/><rect class="cls-4" x="7.07" y="43.21" width="64.77" height="8.65"/><rect class="cls-4" x="7.07" y="52.85" width="64.77" height="8.65"/><rect class="cls-4" x="7.07" y="62.48" width="64.77" height="8.65"/><rect class="cls-4" x="7.07" y="72.12" width="64.77" height="8.65"/></g><circle class="cls-5" cx="27.75" cy="33.6" r="6.25"/><rect class="cls-5" x="30.12" y="43.14" width="40.33" height="19.35"/><path class="cls-6" d="M32.48,44.51h2.11v15H32.48Zm1,0h8.62v2H33.51Zm0,6.56H41v2H33.51Zm0,6.45h8.62v2H33.51Z"/><path class="cls-6" d="M48.48,59.68,47.3,59a4.63,4.63,0,0,1-1.83-2,6.3,6.3,0,0,1-.65-2.94V50A6.3,6.3,0,0,1,45.47,47a4.71,4.71,0,0,1,1.83-2A5.34,5.34,0,0,1,50,44.36a5.18,5.18,0,0,1,2.38.55,5.11,5.11,0,0,1,1.81,1.56,6.12,6.12,0,0,1,1,2.35H53.06a3.31,3.31,0,0,0-.66-1.26,3.39,3.39,0,0,0-1.08-.85,2.91,2.91,0,0,0-4,1.39A4.21,4.21,0,0,0,47,50v4.13a4.16,4.16,0,0,0,.39,1.85,2.86,2.86,0,0,0,1.07,1.25,3,3,0,0,0,1.61.44,3,3,0,0,0,2.36-1.11,3.21,3.21,0,0,0,.66-1.3h2.16a6,6,0,0,1-1,2.35A5,5,0,0,1,50,59.68Z"/><path class="cls-6" d="M61.64,59.68l-1-.2a8,8,0,0,1-1.81-.62,7.7,7.7,0,0,1-1.58-1l1.31-1.61a5.88,5.88,0,0,0,1.89,1.12,6.54,6.54,0,0,0,2.24.37,4.51,4.51,0,0,0,2.53-.6,2,2,0,0,0,.9-1.71h0a1.82,1.82,0,0,0-.4-1.25,2.59,2.59,0,0,0-1.06-.68A12,12,0,0,0,63,53h-.13l-.16,0a16.86,16.86,0,0,1-2.45-.58,3.46,3.46,0,0,1-1.61-1.19A3.9,3.9,0,0,1,58,48.77h0a4.31,4.31,0,0,1,.63-2.38,4,4,0,0,1,1.82-1.51,7.34,7.34,0,0,1,2.88-.51,7.66,7.66,0,0,1,1.59.17,8.22,8.22,0,0,1,1.54.52,9.22,9.22,0,0,1,1.49.88l-1.2,1.67a7,7,0,0,0-1.71-1,4.87,4.87,0,0,0-1.71-.31,4,4,0,0,0-2.39.61,2,2,0,0,0-.85,1.74h0a1.66,1.66,0,0,0,.44,1.22,2.62,2.62,0,0,0,1.09.66,16.64,16.64,0,0,0,1.83.44h.07l.08,0,.12,0,.11,0a13.24,13.24,0,0,1,2.28.66A3.59,3.59,0,0,1,67.63,53a3.94,3.94,0,0,1,.61,2.32v0a4.16,4.16,0,0,1-.65,2.35,4,4,0,0,1-1.89,1.49,7.77,7.77,0,0,1-3,.51Z"/><rect class="cls-5" x="22.67" y="42.77" width="10.17" height="37.99"/><path class="cls-4" d="M110.94,61.14l-.59,2.38a92.35,92.35,0,0,1-9.47.16c-3.59-.21-5.15-.73-6.81-3.45a21.76,21.76,0,0,1-3.15,4.37l-1.34-1.39a15.24,15.24,0,0,0,3.33-3.27V54.66h-3.1V53.58H95v6.18c1.39,1.92,2.94,2,6,2A70.1,70.1,0,0,0,110.94,61.14ZM93.36,51.7A48.46,48.46,0,0,0,90.17,48l.47-.71A22,22,0,0,1,94.89,50ZM91.5,43.24l.45-.71a19.15,19.15,0,0,1,4.32,2.59l-1.5,1.71A30.33,30.33,0,0,0,91.5,43.24ZM95.78,48a12.59,12.59,0,0,0,4.94-5.57l2.09.66a15.07,15.07,0,0,1-1,1.38H105l.45-.32,1.92,1a11.25,11.25,0,0,1-2.82,3.27,20,20,0,0,0,5.9.89l-.87,2a14.77,14.77,0,0,1-6.48-1.93,21.09,21.09,0,0,1-7.64,2.49l-.24-.77a19.53,19.53,0,0,0,6.58-2.63,11.43,11.43,0,0,1-1.88-2.12,15.52,15.52,0,0,1-3.73,2.33Zm6.16,13.09V58.39H96.09v-1h5.85V55.76H97.66V54.7h4.28V53.25h-5.1V52.19h5.1V50.33h2v1.86h5.12v1.06H104V54.7h4.39v1.06H104v1.58h5.94v1H104v2.66Zm2.87-15.56h-4a3.6,3.6,0,0,1-.36.33,9.5,9.5,0,0,0,2.35,1.83A10.23,10.23,0,0,0,104.81,45.49Z"/><path class="cls-4" d="M115.08,57.45V43.8h17.06V57.41H130v-2h-5.31v9.1h-2.21v-9.1h-5.26v2.07Zm2.11-8.69h5.26v-3.9h-5.26Zm5.26,1.06h-5.26v4.51h5.26Zm2.21-1.06H130v-3.9h-5.31ZM130,49.82h-5.31v4.51H130Z"/><path class="cls-4" d="M144.4,60.6,146.54,62a30.83,30.83,0,0,1-9.42,2.85l-.26-.82A22.72,22.72,0,0,0,144.4,60.6Zm-6.11-8.06-1.24-1.71A31.72,31.72,0,0,0,142.12,47l.61.52A26.43,26.43,0,0,1,138.29,52.54Zm3.27-6c-1.55-1.13-2.75-2-3.85-2.66l.28-.8a17,17,0,0,1,4.77,1.58Zm-1.67,5.31,14.59,0v8.53H139.89ZM142,54.35h10.46V52.89H142Zm0,2.37h10.46V55.34H142Zm0,2.61h10.46V57.71H142Zm1.39-10.78-.57-.59a12.59,12.59,0,0,0,2.77-5.57l2,.54a14.42,14.42,0,0,1-.57,1.39h7l.4-.33,2,1.15a11.09,11.09,0,0,1-3.36,3.17l-.61-.52a10.6,10.6,0,0,0,1.41-2.49h-3a10.9,10.9,0,0,1-.55,1.67c2,2.38,4.54,2.66,6.94,2.8L156.13,52a8.76,8.76,0,0,1-6.35-4.18c-1.52,2.3-4.18,3.5-7.3,3.81l-.24-.8c3.67-.87,5.52-2.66,6.28-5.48h-2.07A11.81,11.81,0,0,1,143.35,48.55Zm4.77,12.17a37.48,37.48,0,0,1,8.81,1.93l-1.15,2.09a64.76,64.76,0,0,0-7.88-3.2Z"/><path class="cls-4" d="M168.91,47.77h-8.78V46.71h4.32c-.66-1.29-1.48-2.7-2.09-3.64l.66-.52a16.43,16.43,0,0,1,3.33,3.22l-1.34.94h3.93Zm-7.75,2.49h7v1h-7Zm6.93,4h-6.93v-1h6.93Zm-6.84,2.42h6.91V64h-1.85V62.74h-3.25v1.64h-1.81Zm1.81,5h3.22v-4h-3.22Zm16.17,2.49c-2.52-1.06-2.7-6.28-2.7-14.08v-5h-3.22v7.29H176v1h-2.7v11h-2.12v-11h-2.54v-1h2.54V45.16h-2.56v-1h10l-.08,6c-.09,7.45.47,11.14,1,11.52s.57-.4.52-3.85h.84C182.54,63.63,180.8,64.85,179.23,64.2Z"/><path class="cls-4" d="M204.19,61.26v1.29H184.05V61.26H193V46.5h-7.71V45.28h17.56V46.5H195.3V61.26Z"/><path class="cls-4" d="M214.06,56.21c-.36-.9-.8-1.93-1.27-2.94V64.46h-2V54.23A19.67,19.67,0,0,1,207.48,60l-.66-.54a31.39,31.39,0,0,0,3.55-9.31h-3.08V49.06h3.48v-3.5c-1.18.24-2.35.43-3.39.57l-.16-.8a25.15,25.15,0,0,0,6.95-2.8L216,44.18c-1,.35-2.06.65-3.19.94v3.94h3.12v1.06h-3.12V51.7a16.78,16.78,0,0,1,3,3.45Zm14.07,6v1h-13.7v-1h5.88V58.6h-5V57.55h5V54.63c-1.58.17-3.08.29-4.33.33l-.18-.82a32.26,32.26,0,0,0,9.35-2.7l2.07,1.88a34.91,34.91,0,0,1-4.8,1v3.2h5V58.6h-5v3.65Zm-1.9-11.31h-9.68V44.15h9.68Zm-2-5.73h-5.74v4.68h5.74Z"/><path class="cls-4" d="M251.19,59.45h-8.53v2.7c0,2.12-1.86,3.34-6,.9l.21-.8c3.41.75,3.69.4,3.69-1V59.45H231V58.39h9.54V56.7l1.58.24a16.77,16.77,0,0,0,2.42-1.77H234.6V54.12h10.48l.63-.29,1.9,1.53a18.09,18.09,0,0,1-5,2.3v.73h8.53Zm-17.93-3.36h-2.07V51.91h2.07c-.07-2.68-.17-5.38-.31-8.06l1.86.4a8.81,8.81,0,0,0,2.56-1.84l1.22,1.32A13.9,13.9,0,0,1,234.85,45c0,.42,0,.84.05,1.27H238v1H235c0,.62,0,1.25.05,1.86h3.19v1.06H235c0,.56,0,1.1,0,1.67h3.47l-.28-.61a8.26,8.26,0,0,0,2.09-1.63c-.47-.39-1-.77-1.5-1.15l.35-.65c.68.3,1.32.58,1.93.91a12.1,12.1,0,0,0,1.08-1.6l1.46,1c-.36.42-.78.87-1.27,1.34a14.5,14.5,0,0,1,1.5,1.17l-1.08,1.18H247c0-.54.07-1.06.09-1.6h-3.19V49.25h3.24c0-.56.07-1.15.09-1.71h-3.17V46.48h3.2l.07-1.81h-3.43V43.61h3.24l.44-.44,1.72.42c-.16,2.72-.31,5.57-.52,8.32H251V56h-2.07V53H233.26ZM240.4,44.9a19.5,19.5,0,0,0-1.48-1.34l.35-.68c.59.29,1.2.66,1.84,1.06.3-.49.58-1,.82-1.46l1.57.87a9.71,9.71,0,0,1-1.17,1.46c.49.38.94.75,1.38,1.15l-1.24,1.27a17.28,17.28,0,0,0-1.18-1.41,13.46,13.46,0,0,1-2.42,1.67l-.42-.59A11.89,11.89,0,0,0,240.4,44.9Zm-1.48,7h3.62a15.38,15.38,0,0,0-1.25-1.39A9.76,9.76,0,0,1,238.92,51.91Z"/><path class="cls-4" d="M254.31,63.66l-.42-.76a22.38,22.38,0,0,0,6.46-6l2,1.31A22.7,22.7,0,0,1,254.31,63.66Zm11.78-8v6.44c0,2.38-1.95,3.5-6.11,1l.28-.82c3.22.75,3.62.49,3.62-.92V55.93c-3,.32-5.9.56-7.62.63l-.58-2.21c1.36.09,2.86.14,4.44.12a27.55,27.55,0,0,0,5.87-4,70.59,70.59,0,0,1-8.18,1.15l-.56-2.18c.87,0,1.79.09,2.73.11a25.27,25.27,0,0,0,3.31-3.66c-2.7.26-5.31.4-7.29.44l-.14-.84c5.46-.54,10.93-1.25,15.11-2.94l2.19,1.81a58.73,58.73,0,0,1-6.7,1.18,41.56,41.56,0,0,1-5,4c1.91,0,3.88-.05,5.69-.17.87-.87,1.71-1.78,2.51-2.75l2.1,1.25a34.28,34.28,0,0,1-9.45,6.55c3.12-.07,6.27-.3,8.65-.54-.64-.86-1.25-1.62-1.84-2.27l.59-.59a22.6,22.6,0,0,1,5.15,4.67L273,57.12c-.51-.91-1-1.71-1.5-2.44C270.08,55,268.13,55.36,266.09,55.64Zm9,5.71-1.62,1.93A50.12,50.12,0,0,0,267,57.55l.43-.76A30.9,30.9,0,0,1,275.11,61.35Z"/></svg>